<?xml version="1.0" encoding="utf-8"?>
<?xml-stylesheet type="text/xsl" href="rss1.xsl"?>
<rss version="2.0" xmlns:atom="http://www.w3.org/2005/Atom" xmlns:content="http://purl.org/rss/1.0/modules/content/" xmlns:dc="http://purl.org/dc/elements/1.1/" xmlns:media="http://search.yahoo.com/mrss/">
<channel>
 <title>Getty</title>
 <link>http://www.gettyimg.com/</link>
 <atom:link href="http://www.gettyimg.com/" rel="self" type="application/rss+xml" />

 
                <item>
                <title><![CDATA[【UPSCALED】Mr.Kitty - After Dark [4K AI Upscale | HEVC 10-bit | PCM 16-bit 44.1 kHz]]]></title>
                <link><![CDATA[https://sharemania.us/threads/mr-kitty-after-dark-4k-ai-upscale-hevc-10-bit-pcm-16-bit-44-1-khz.239041/]]></link>
                <description><![CDATA[<article>
<blockquote class="messageText SelectQuoteContainer ugc baseHtml">
<img src="https://images2.imgbox.com/64/af/H6ro6DQA_o.jpg" class="bbCodeImage LbImage" alt="[​IMG]" data-url="https://images2.imgbox.com/64/af/H6ro6DQA_o.jpg" style=""><br>
<br>
<b>Genre: <span style="color: #0059b3">Electronic</span> <br>
Style: <span style="color: #0059b3">Synth-pop, New Wave</span> <br>
Year: <span style="color: #0059b3">2014</span> <br>
Video Source: <span style="color: #0059b3">Vimeo?</span><br>
Audio Source: <span style="color: #0059b3">Qobuz</span></b><br>
<br>
"<b>After Dark</b>" is a song by American singer-songwriter, record producer, and DJ Mr.Kitty. It's the ninth track on his fifth album Time, released in 2014. Forrest Avery Carney (born March 24, 1992), better known as Mr.Kitty or Michael Kenneth Echo Strobes, is best known for his song "After Dark", which went viral after a fan video was published on YouTube in 2019. The song became an absolute sensation in 2020 and rode through the entirety of the pandemic.<br>
<br>
The fan video, made by "Diana Darkangel" (now "Diana Sandra"), was created with footage from “Career Opportunities,” a 1991 film with Jennifer Connelly. It got over 60 million views on Youtube, before it was removed due to copyright reasons.<br>
<br>
Mr.Kitty wrote in a reaction on Twitter: <i>"Nobody paid for anything / Target has nothing to do with it. It’s a fan video. Diana Sandra spliced clips from the movie “Career Opportunities” over my music and uploaded it to YouTube. I appreciate the attention, but the video is not my vision. Also, I’m getting paid for the views."</i><br>
<br>
<b>Release Info</b><br>
I've found this video in my 2do map. I can't remember who requested it and where I got the video from.<br>
The source is a 1080p edit, almost identical to Diana Darkangel's clip (released in 720p).<br>
The video track is upscaled to 4K with Topaz Video AI and encoded to HEVC 10-bit.<br>
The PCM track is lossless (Qobuz, CD quality) and synced with Adobe Audition.<br>
The timed lyrics are synced and edited. Enable the subtitles to see the lyrics.<br>
<br>
<div class="ToggleTriggerAnchor bbCodeSpoilerContainer">
<button type="button" class="button bbCodeSpoilerButton ToggleTrigger Tooltip JsOnly" data-target="> .SpoilerTarget"><span>Spoiler: <span class="SpoilerTitle">Media Info</span></span></button>
<div class="SpoilerTarget bbCodeSpoilerText">
<div class="bbCodeBlock bbCodeCode">
<div class="type">Code:</div>
<pre>General
Unique ID                      : 175524559207388333795488127584678973104 (0x840CCCEAA343A7DE0BC678107F880EB0)
Complete name                  : Mr.Kitty - After Dark.mkv
Format                         : Matroska
Format version                 : Version 4 / Version 2
File size                      : 631 MiB
Duration                       : 4 min 19 s
Overall bit rate               : 20.4 Mb/s
Frame rate                     : 23.833 FPS
Encoded date                   : 2024-02-29 17:28:47 UTC
Writing application            : mkvmerge v82.0 ('I'm The President') 64-bit
Writing library                : libebml v1.4.5 + libmatroska v1.7.1

Video
ID                             : 1
Format                         : HEVC
Format/Info                    : High Efficiency Video Coding
Format profile                 : Main 10@L5@Main
Codec ID                       : V_MPEGH/ISO/HEVC
Duration                       : 4 min 19 s
Bit rate                       : 18.9 Mb/s
Width                          : 3 840 pixels
Height                         : 1 624 pixels
Display aspect ratio           : 2.35:1
Frame rate mode                : Constant
Frame rate                     : 23.833 FPS
Original frame rate            : 23.840 FPS
Color space                    : YUV
Chroma subsampling             : 4:2:0
Bit depth                      : 10 bits
Bits/(Pixel*Frame)             : 0.127
Stream size                    : 584 MiB (92%)
Default                        : Yes
Forced                         : No
Color range                    : Limited
Color primaries                : BT.709
Transfer characteristics       : BT.709
Matrix coefficients            : BT.709

Audio #1
ID                             : 2
Format                         : PCM
Format settings                : Little / Signed
Codec ID                       : A_PCM/INT/LIT
Duration                       : 4 min 19 s
Bit rate mode                  : Constant
Bit rate                       : 1 411.2 kb/s
Channel(s)                     : 2 channels
Sampling rate                  : 44.1 kHz
Frame rate                     : 25.001 FPS (1764 SPF)
Bit depth                      : 16 bits
Stream size                    : 43.6 MiB (7%)
Title                          : Lossless
Language                       : English
Default                        : Yes
Forced                         : No

Audio #2
ID                             : 3
Format                         : AAC LC
Format/Info                    : Advanced Audio Codec Low Complexity
Codec ID                       : A_AAC-2
Duration                       : 4 min 19 s
Bit rate                       : 128 kb/s
Channel(s)                     : 2 channels
Channel layout                 : L R
Sampling rate                  : 44.1 kHz
Frame rate                     : 43.066 FPS (1024 SPF)
Compression mode               : Lossy
Stream size                    : 3.96 MiB (1%)
Language                       : English
Default                        : No
Forced                         : No

Text
ID                             : 4
Format                         : UTF-8
Codec ID                       : S_TEXT/UTF8
Codec ID/Info                  : UTF-8 Plain Text
Duration                       : 3 min 39 s
Bit rate                       : 64 b/s
Frame rate                     : 0.383 FPS
Count of elements              : 84
Stream size                    : 1.74 KiB (0%)
Title                          : Lyrics
Language                       : English
Default                        : No
Forced                         : No
</pre>
</div></div>
</div><br>
<b>Note to the peeps @ RuTracker: Give credit if you post the work of someone else!</b><br>
- Hurby4 aka ADHDerby<br>
<br>
<div class="bbCodeBlock bbCodeVfcHH HiddenContent">
<div class="attribution type">Hidden Content:</div>
<blockquote>You must reply before you can see the hidden data contained here.</blockquote>
</div>
<div class="messageTextEndMarker">&nbsp;</div>
</blockquote>
</article>]]></description>
                <author><![CDATA[ADHDerby]]></author>
                </item>

                </channel></rss>